<mxfile host="app.diagrams.net" agent="Mozilla/5.0 (Windows NT 10.0; Win64; x64; rv:132.0) Gecko/20100101 Firefox/132.0" version="24.8.6">
  <diagram name="Page-1" id="kpCUjtEi7nMDaQPn7GTy">
    <mxGraphModel dx="1972" dy="-419" grid="1" gridSize="10" guides="1" tooltips="1" connect="1" arrows="1" fold="1" page="1" pageScale="1" pageWidth="850" pageHeight="1100" math="0" shadow="0">
      <root>
        <mxCell id="0" />
        <mxCell id="1" parent="0" />
        <mxCell id="ws3EkPWd5Y2wLgNf-SEe-2" value="" style="verticalLabelPosition=bottom;verticalAlign=top;html=1;shape=mxgraph.basic.rect;fillColor2=none;strokeWidth=1;size=20;indent=0;container=0;flipV=1;flipH=1;" parent="1" vertex="1">
          <mxGeometry x="30" y="1340" width="840" height="40" as="geometry" />
        </mxCell>
        <mxCell id="ws3EkPWd5Y2wLgNf-SEe-3" value="" style="line;strokeWidth=2;direction=south;html=1;" parent="1" vertex="1">
          <mxGeometry x="105" y="1340" width="10" height="40" as="geometry" />
        </mxCell>
        <mxCell id="ws3EkPWd5Y2wLgNf-SEe-4" value="&lt;u&gt;&lt;b&gt;UserID&lt;/b&gt;&lt;/u&gt;" style="text;html=1;align=center;verticalAlign=middle;resizable=0;points=[];autosize=1;strokeColor=none;fillColor=none;" parent="1" vertex="1">
          <mxGeometry x="40" y="1345" width="60" height="30" as="geometry" />
        </mxCell>
        <mxCell id="ws3EkPWd5Y2wLgNf-SEe-5" value="" style="line;strokeWidth=2;direction=south;html=1;" parent="1" vertex="1">
          <mxGeometry x="205" y="1340" width="10" height="40" as="geometry" />
        </mxCell>
        <mxCell id="ws3EkPWd5Y2wLgNf-SEe-6" value="Username" style="text;html=1;align=center;verticalAlign=middle;resizable=0;points=[];autosize=1;strokeColor=none;fillColor=none;" parent="1" vertex="1">
          <mxGeometry x="115" y="1345" width="80" height="30" as="geometry" />
        </mxCell>
        <mxCell id="ws3EkPWd5Y2wLgNf-SEe-7" value="" style="line;strokeWidth=2;direction=south;html=1;" parent="1" vertex="1">
          <mxGeometry x="320" y="1340" width="10" height="40" as="geometry" />
        </mxCell>
        <mxCell id="ws3EkPWd5Y2wLgNf-SEe-8" value="FirstName" style="text;html=1;align=center;verticalAlign=middle;resizable=0;points=[];autosize=1;strokeColor=none;fillColor=none;" parent="1" vertex="1">
          <mxGeometry x="230" y="1345" width="80" height="30" as="geometry" />
        </mxCell>
        <mxCell id="ws3EkPWd5Y2wLgNf-SEe-9" value="" style="line;strokeWidth=2;direction=south;html=1;" parent="1" vertex="1">
          <mxGeometry x="445" y="1340" width="10" height="40" as="geometry" />
        </mxCell>
        <mxCell id="ws3EkPWd5Y2wLgNf-SEe-10" value="LastName" style="text;html=1;align=center;verticalAlign=middle;resizable=0;points=[];autosize=1;strokeColor=none;fillColor=none;" parent="1" vertex="1">
          <mxGeometry x="345" y="1345" width="80" height="30" as="geometry" />
        </mxCell>
        <mxCell id="ws3EkPWd5Y2wLgNf-SEe-11" value="" style="line;strokeWidth=2;direction=south;html=1;" parent="1" vertex="1">
          <mxGeometry x="550" y="1340" width="10" height="40" as="geometry" />
        </mxCell>
        <mxCell id="ws3EkPWd5Y2wLgNf-SEe-12" value="E-mail" style="text;html=1;align=center;verticalAlign=middle;resizable=0;points=[];autosize=1;strokeColor=none;fillColor=none;" parent="1" vertex="1">
          <mxGeometry x="475" y="1345" width="60" height="30" as="geometry" />
        </mxCell>
        <mxCell id="ws3EkPWd5Y2wLgNf-SEe-13" value="" style="line;strokeWidth=2;direction=south;html=1;" parent="1" vertex="1">
          <mxGeometry x="680" y="1340" width="10" height="40" as="geometry" />
        </mxCell>
        <mxCell id="ws3EkPWd5Y2wLgNf-SEe-14" value="Password" style="text;html=1;align=center;verticalAlign=middle;resizable=0;points=[];autosize=1;strokeColor=none;fillColor=none;" parent="1" vertex="1">
          <mxGeometry x="580" y="1345" width="80" height="30" as="geometry" />
        </mxCell>
        <mxCell id="ws3EkPWd5Y2wLgNf-SEe-15" value="BDate" style="text;html=1;align=center;verticalAlign=middle;resizable=0;points=[];autosize=1;strokeColor=none;fillColor=none;" parent="1" vertex="1">
          <mxGeometry x="690" y="1345" width="60" height="30" as="geometry" />
        </mxCell>
        <mxCell id="ws3EkPWd5Y2wLgNf-SEe-16" value="&lt;b&gt;&lt;font style=&quot;font-size: 14px;&quot;&gt;User&lt;/font&gt;&lt;/b&gt;" style="text;html=1;align=center;verticalAlign=middle;resizable=0;points=[];autosize=1;strokeColor=none;fillColor=none;" parent="1" vertex="1">
          <mxGeometry x="30" y="1310" width="50" height="30" as="geometry" />
        </mxCell>
        <mxCell id="ws3EkPWd5Y2wLgNf-SEe-28" value="" style="verticalLabelPosition=bottom;verticalAlign=top;html=1;shape=mxgraph.basic.rect;fillColor2=none;strokeWidth=1;size=20;indent=0;container=0;flipV=1;flipH=1;" parent="1" vertex="1">
          <mxGeometry x="47.5" y="1600" width="575" height="40" as="geometry" />
        </mxCell>
        <mxCell id="ws3EkPWd5Y2wLgNf-SEe-29" value="&lt;b&gt;Stock&lt;/b&gt;" style="text;html=1;align=center;verticalAlign=middle;resizable=0;points=[];autosize=1;strokeColor=none;fillColor=none;" parent="1" vertex="1">
          <mxGeometry x="42.5" y="1570" width="60" height="30" as="geometry" />
        </mxCell>
        <mxCell id="ws3EkPWd5Y2wLgNf-SEe-30" value="" style="line;strokeWidth=2;direction=south;html=1;" parent="1" vertex="1">
          <mxGeometry x="142.5" y="1600" width="10" height="40" as="geometry" />
        </mxCell>
        <mxCell id="ws3EkPWd5Y2wLgNf-SEe-31" value="&lt;b&gt;&lt;u&gt;StockID&lt;/u&gt;&lt;/b&gt;" style="text;html=1;align=center;verticalAlign=middle;resizable=0;points=[];autosize=1;strokeColor=none;fillColor=none;" parent="1" vertex="1">
          <mxGeometry x="62.5" y="1605" width="70" height="30" as="geometry" />
        </mxCell>
        <mxCell id="ws3EkPWd5Y2wLgNf-SEe-32" value="" style="line;strokeWidth=2;direction=south;html=1;" parent="1" vertex="1">
          <mxGeometry x="227.5" y="1600" width="10" height="40" as="geometry" />
        </mxCell>
        <mxCell id="ws3EkPWd5Y2wLgNf-SEe-33" value="OpenPrice" style="text;html=1;align=center;verticalAlign=middle;resizable=0;points=[];autosize=1;strokeColor=none;fillColor=none;" parent="1" vertex="1">
          <mxGeometry x="147.5" y="1605" width="80" height="30" as="geometry" />
        </mxCell>
        <mxCell id="ws3EkPWd5Y2wLgNf-SEe-34" value="" style="line;strokeWidth=2;direction=south;html=1;" parent="1" vertex="1">
          <mxGeometry x="347.5" y="1600" width="10" height="40" as="geometry" />
        </mxCell>
        <mxCell id="ws3EkPWd5Y2wLgNf-SEe-35" value="ClosePrice" style="text;html=1;align=center;verticalAlign=middle;resizable=0;points=[];autosize=1;strokeColor=none;fillColor=none;" parent="1" vertex="1">
          <mxGeometry x="252.5" y="1605" width="80" height="30" as="geometry" />
        </mxCell>
        <mxCell id="ws3EkPWd5Y2wLgNf-SEe-36" value="" style="line;strokeWidth=2;direction=south;html=1;" parent="1" vertex="1">
          <mxGeometry x="417.5" y="1600" width="10" height="40" as="geometry" />
        </mxCell>
        <mxCell id="ws3EkPWd5Y2wLgNf-SEe-37" value="Change" style="text;html=1;align=center;verticalAlign=middle;resizable=0;points=[];autosize=1;strokeColor=none;fillColor=none;" parent="1" vertex="1">
          <mxGeometry x="357.5" y="1605" width="70" height="30" as="geometry" />
        </mxCell>
        <mxCell id="ws3EkPWd5Y2wLgNf-SEe-38" value="Symbol" style="text;html=1;align=center;verticalAlign=middle;resizable=0;points=[];autosize=1;strokeColor=none;fillColor=none;" parent="1" vertex="1">
          <mxGeometry x="427.5" y="1605" width="60" height="30" as="geometry" />
        </mxCell>
        <mxCell id="ws3EkPWd5Y2wLgNf-SEe-50" value="" style="endArrow=classic;html=1;rounded=0;edgeStyle=orthogonalEdgeStyle;entryX=1.001;entryY=-0.009;entryDx=0;entryDy=0;entryPerimeter=0;exitX=0.386;exitY=-0.02;exitDx=0;exitDy=0;exitPerimeter=0;" parent="1" edge="1">
          <mxGeometry width="50" height="50" relative="1" as="geometry">
            <mxPoint x="180.65000000000032" y="1490.44" as="sourcePoint" />
            <mxPoint x="29.160000000000537" y="1360" as="targetPoint" />
            <Array as="points">
              <mxPoint x="181" y="1529.64" />
              <mxPoint x="-90" y="1529.64" />
              <mxPoint x="-90" y="1359.64" />
            </Array>
          </mxGeometry>
        </mxCell>
        <mxCell id="ws3EkPWd5Y2wLgNf-SEe-53" value="" style="line;strokeWidth=2;direction=south;html=1;" parent="1" vertex="1">
          <mxGeometry x="760" y="1340" width="10" height="40" as="geometry" />
        </mxCell>
        <mxCell id="ws3EkPWd5Y2wLgNf-SEe-54" value="PhoneNumber" style="text;html=1;align=center;verticalAlign=middle;resizable=0;points=[];autosize=1;strokeColor=none;fillColor=none;" parent="1" vertex="1">
          <mxGeometry x="770" y="1345" width="100" height="30" as="geometry" />
        </mxCell>
        <mxCell id="ws3EkPWd5Y2wLgNf-SEe-58" value="" style="line;strokeWidth=2;direction=south;html=1;" parent="1" vertex="1">
          <mxGeometry x="497.5" y="1600" width="10" height="40" as="geometry" />
        </mxCell>
        <mxCell id="ws3EkPWd5Y2wLgNf-SEe-59" value="CompanyName" style="text;html=1;align=center;verticalAlign=middle;resizable=0;points=[];autosize=1;strokeColor=none;fillColor=none;" parent="1" vertex="1">
          <mxGeometry x="507.5" y="1605" width="110" height="30" as="geometry" />
        </mxCell>
        <mxCell id="ws3EkPWd5Y2wLgNf-SEe-61" value="" style="verticalLabelPosition=bottom;verticalAlign=top;html=1;shape=mxgraph.basic.rect;fillColor2=none;strokeWidth=1;size=20;indent=0;container=0;flipV=1;flipH=1;" parent="1" vertex="1">
          <mxGeometry x="42.5" y="1470" width="225" height="40" as="geometry" />
        </mxCell>
        <mxCell id="ws3EkPWd5Y2wLgNf-SEe-62" value="&lt;b&gt;Prediction&lt;/b&gt;" style="text;html=1;align=center;verticalAlign=middle;resizable=0;points=[];autosize=1;strokeColor=none;fillColor=none;" parent="1" vertex="1">
          <mxGeometry x="47.5" y="1440" width="80" height="30" as="geometry" />
        </mxCell>
        <mxCell id="ws3EkPWd5Y2wLgNf-SEe-63" value="&lt;b&gt;&lt;u&gt;PredictionID&lt;/u&gt;&lt;/b&gt;" style="text;html=1;align=center;verticalAlign=middle;resizable=0;points=[];autosize=1;strokeColor=none;fillColor=none;" parent="1" vertex="1">
          <mxGeometry x="42.5" y="1475" width="90" height="30" as="geometry" />
        </mxCell>
        <mxCell id="ws3EkPWd5Y2wLgNf-SEe-64" value="" style="line;strokeWidth=2;direction=south;html=1;" parent="1" vertex="1">
          <mxGeometry x="132.5" y="1470" width="10" height="40" as="geometry" />
        </mxCell>
        <mxCell id="ws3EkPWd5Y2wLgNf-SEe-65" value="" style="line;strokeWidth=2;direction=south;html=1;" parent="1" vertex="1">
          <mxGeometry x="202.5" y="1470" width="10" height="40" as="geometry" />
        </mxCell>
        <mxCell id="ws3EkPWd5Y2wLgNf-SEe-66" value="UserID" style="text;html=1;align=center;verticalAlign=middle;resizable=0;points=[];autosize=1;strokeColor=none;fillColor=none;" parent="1" vertex="1">
          <mxGeometry x="147.5" y="1475" width="60" height="30" as="geometry" />
        </mxCell>
        <mxCell id="ws3EkPWd5Y2wLgNf-SEe-67" value="Trend" style="text;html=1;align=center;verticalAlign=middle;resizable=0;points=[];autosize=1;strokeColor=none;fillColor=none;" parent="1" vertex="1">
          <mxGeometry x="212.5" y="1475" width="50" height="30" as="geometry" />
        </mxCell>
      </root>
    </mxGraphModel>
  </diagram>
</mxfile>
